0
SECTION
2
HEADER
9
$INSUNITS
70
4
9
$ACADVER
1
AC1014
9
$HANDSEED
5
FFFF
0
ENDSEC
0
SECTION
2
TABLES
0
TABLE
2
VPORT
5
8
100
AcDbSymbolTable
0
ENDTAB
0
TABLE
2
LTYPE
5
5
100
AcDbSymbolTable
0
LTYPE
5
14
100
AcDbSymbolTableRecord
100
AcDbLinetypeTableRecord
2
BYBLOCK
70
0
0
LTYPE
5
15
100
AcDbSymbolTableRecord
100
AcDbLinetypeTableRecord
2
BYLAYER
70
0
0
LTYPE
5
16
100
AcDbSymbolTableRecord
100
AcDbLinetypeTableRecord
2
DASHED
70
0
3
Dashed __ __ __ __ __ __ __ __ __ __ __ __ __ _
72
65
73
2
40
0.75
49
0.5
74
0
49
-0.25
74
0
0
ENDTAB
0
TABLE
2
LAYER
5
2
100
AcDbSymbolTable
70
2
0
LAYER
5
50
100
AcDbSymbolTableRecord
100
AcDbLayerTableRecord
2
0
70
0
62
7
6
CONTINUOUS
0
ENDTAB
0
TABLE
2
STYLE
5
3
100
AcDbSymbolTable
70
1
0
STYLE
5
11
100
AcDbSymbolTableRecord
100
AcDbTextStyleTableRecord
2
STANDARD
70
0
0
ENDTAB
0
TABLE
2
VIEW
5
6
100
AcDbSymbolTable
70
0
0
ENDTAB
0
TABLE
2
UCS
5
7
100
AcDbSymbolTable
70
0
0
ENDTAB
0
TABLE
2
APPID
5
9
100
AcDbSymbolTable
70
2
0
APPID
5
12
100
AcDbSymbolTableRecord
100
AcDbRegAppTableRecord
2
ACAD
70
0
0
ENDTAB
0
TABLE
2
DIMSTYLE
5
A
100
AcDbSymbolTable
70
1
0
ENDTAB
0
TABLE
2
BLOCK_RECORD
5
1
100
AcDbSymbolTable
70
1
0
BLOCK_RECORD
5
1F
100
AcDbSymbolTableRecord
100
AcDbBlockTableRecord
2
*MODEL_SPACE
0
BLOCK_RECORD
5
1B
100
AcDbSymbolTableRecord
100
AcDbBlockTableRecord
2
*PAPER_SPACE
0
ENDTAB
0
ENDSEC
0
SECTION
2
BLOCKS
0
BLOCK
5
20
100
AcDbEntity
100
AcDbBlockBegin
2
*MODEL_SPACE
0
ENDBLK
5
21
100
AcDbEntity
100
AcDbBlockEnd
0
BLOCK
5
1C
100
AcDbEntity
100
AcDbBlockBegin
2
*PAPER_SPACE
0
ENDBLK
5
1D
100
AcDbEntity
100
AcDbBlockEnd
0
ENDSEC
0
SECTION
2
ENTITIES
0
LWPOLYLINE
5
100
100
AcDbEntity
8
0
100
AcDbPolyline
90
32
70
1
43
0.0
10
173.63855120813292
20
-125.02370731607795
10
161.23750812557304
20
53.024984544213574
42
0.059565329037013851
10
159.0127420250592
20
64.685593737386881
10
81.389511162973832
20
309.09699644157132
42
0.73162863083748131
10
-81.389375474692386
20
309.09699644157132
10
-159.01260633677779
20
64.685593737386881
42
0.059565329037013733
10
-161.23737243729164
20
53.024984544213609
10
-173.63841551985155
20
-125.0237073160779
10
-149.7510056049494
20
-125.0237073160779
10
-149.75100560494937
20
-140
10
-121.36310000000003
20
-140
10
-121.36310000000003
20
-125.0237073160779
10
-97.251005604949398
20
-125.0237073160779
10
-97.251005604949398
20
-140
10
-68.86310000000006
20
-140
10
-68.863100000000045
20
-125.0237073160779
10
-44.751005604949398
20
-125.0237073160779
10
-44.751005604949405
20
-140
10
-16.363100000000049
20
-140
10
-16.363100000000045
20
-125.0237073160779
10
16.363235688281364
20
-125.0237073160779
10
16.363235688281375
20
-140
10
44.751141293230731
20
-140
10
44.751141293230738
20
-125.0237073160779
10
68.863235688281378
20
-125.0237073160779
10
68.863235688281378
20
-140
10
97.251141293230773
20
-140
10
97.251141293230773
20
-125.0237073160779
10
121.36323568828146
20
-125.0237073160779
10
121.36323568828145
20
-140
10
149.7511412932308
20
-140.00000000000003
10
149.75114129323083
20
-125.02370731607795
0
CIRCLE
5
101
100
AcDbEntity
8
0
100
AcDbCircle
10
6.7844140687611798e-05
20
283.24831884889443
30
0
40
11
210
-0
220
0
230
1
0
CIRCLE
5
102
100
AcDbEntity
8
0
100
AcDbCircle
10
-136.07188214376376
20
1.5240030480060001
30
1.7763568394002505e-14
40
1.000002540005003
210
-5.5511151231257827e-17
220
0
230
1
0
CIRCLE
5
103
100
AcDbEntity
8
0
100
AcDbCircle
10
-136.07188214376376
20
45.720091440182998
30
1.7763568394002505e-14
40
1.000002540005003
210
-5.5511151231257827e-17
220
0
230
1
0
CIRCLE
5
104
100
AcDbEntity
8
0
100
AcDbCircle
10
-62.91973583947965
20
1.5240030480060001
30
0
40
1.000002540005003
210
-5.5511151231257827e-17
220
0
230
1
0
CIRCLE
5
105
100
AcDbEntity
8
0
100
AcDbCircle
10
-62.91973583947965
20
45.720091440182998
30
0
40
1.000002540005003
210
-5.5511151231257827e-17
220
0
230
1
0
ENDSEC
0
SECTION
2
OBJECTS
0
DICTIONARY
5
C
100
AcDbDictionary
3
ACAD_GROUP
350
D
3
ACAD_MLINESTYLE
350
17
0
DICTIONARY
5
D
100
AcDbDictionary
0
DICTIONARY
5
1A
330
C
100
AcDbDictionary
0
DICTIONARY
5
17
100
AcDbDictionary
0
ENDSEC
0
EOF
