0
SECTION
2
HEADER
9
$INSUNITS
70
4
9
$ACADVER
1
AC1014
9
$HANDSEED
5
FFFF
0
ENDSEC
0
SECTION
2
TABLES
0
TABLE
2
VPORT
5
8
100
AcDbSymbolTable
0
ENDTAB
0
TABLE
2
LTYPE
5
5
100
AcDbSymbolTable
0
LTYPE
5
14
100
AcDbSymbolTableRecord
100
AcDbLinetypeTableRecord
2
BYBLOCK
70
0
0
LTYPE
5
15
100
AcDbSymbolTableRecord
100
AcDbLinetypeTableRecord
2
BYLAYER
70
0
0
LTYPE
5
16
100
AcDbSymbolTableRecord
100
AcDbLinetypeTableRecord
2
DASHED
70
0
3
Dashed __ __ __ __ __ __ __ __ __ __ __ __ __ _
72
65
73
2
40
0.75
49
0.5
74
0
49
-0.25
74
0
0
ENDTAB
0
TABLE
2
LAYER
5
2
100
AcDbSymbolTable
70
2
0
LAYER
5
50
100
AcDbSymbolTableRecord
100
AcDbLayerTableRecord
2
0
70
0
62
7
6
CONTINUOUS
0
ENDTAB
0
TABLE
2
STYLE
5
3
100
AcDbSymbolTable
70
1
0
STYLE
5
11
100
AcDbSymbolTableRecord
100
AcDbTextStyleTableRecord
2
STANDARD
70
0
0
ENDTAB
0
TABLE
2
VIEW
5
6
100
AcDbSymbolTable
70
0
0
ENDTAB
0
TABLE
2
UCS
5
7
100
AcDbSymbolTable
70
0
0
ENDTAB
0
TABLE
2
APPID
5
9
100
AcDbSymbolTable
70
2
0
APPID
5
12
100
AcDbSymbolTableRecord
100
AcDbRegAppTableRecord
2
ACAD
70
0
0
ENDTAB
0
TABLE
2
DIMSTYLE
5
A
100
AcDbSymbolTable
70
1
0
ENDTAB
0
TABLE
2
BLOCK_RECORD
5
1
100
AcDbSymbolTable
70
1
0
BLOCK_RECORD
5
1F
100
AcDbSymbolTableRecord
100
AcDbBlockTableRecord
2
*MODEL_SPACE
0
BLOCK_RECORD
5
1B
100
AcDbSymbolTableRecord
100
AcDbBlockTableRecord
2
*PAPER_SPACE
0
ENDTAB
0
ENDSEC
0
SECTION
2
BLOCKS
0
BLOCK
5
20
100
AcDbEntity
100
AcDbBlockBegin
2
*MODEL_SPACE
0
ENDBLK
5
21
100
AcDbEntity
100
AcDbBlockEnd
0
BLOCK
5
1C
100
AcDbEntity
100
AcDbBlockBegin
2
*PAPER_SPACE
0
ENDBLK
5
1D
100
AcDbEntity
100
AcDbBlockEnd
0
ENDSEC
0
SECTION
2
ENTITIES
0
LWPOLYLINE
5
100
100
AcDbEntity
8
0
100
AcDbPolyline
90
16
70
1
43
0.0
10
-94.938221515853115
20
195.9378232456865
10
-89.999553916541984
20
187.38380004198541
42
-0.054748509748440234
10
-91.502731718697021
20
181.7738641115331
10
-98.901396210266498
20
177.50224317568177
10
-97.151396210266498
20
174.47115426243627
42
-0.41421356237311446
10
-97.334408912158764
20
173.78814156054401
10
-97.534408912158739
20
174.13455172205778
10
-97.707613992915668
20
174.03455172205778
10
-96.757613992915608
20
172.38910345486721
10
-109.74799504968219
20
164.88910345486721
10
-110.49799504968222
20
166.18814156054401
42
-0.41421356237304857
10
-111.18100775157443
20
166.37115426243622
10
-112.93100775157444
20
169.40224317568175
10
-120.32967224314389
20
165.13062223983044
42
-0.0547485097484409
10
-125.93960817359621
20
166.63380004198544
10
-130.39945338529242
20
174.35847854253612
42
20.932343644871512
0
CIRCLE
5
101
100
AcDbEntity
8
0
100
AcDbCircle
10
3.3306690738754696e-14
20
1.8318679906315083e-14
30
0
40
5
210
0
220
-0
230
1
0
LWPOLYLINE
5
102
100
AcDbEntity
8
0
100
AcDbPolyline
90
4
70
1
43
0.0
10
73.819893422247347
20
122.13619398334839
10
65.159639384402979
20
117.13619398334835
10
50.965686581928281
20
141.72084139746914
10
59.625940619772649
20
146.72084139746917
0
LWPOLYLINE
5
103
100
AcDbEntity
8
0
100
AcDbPolyline
90
4
70
1
43
0.0
10
130.62701406886279
20
23.743374791715599
10
121.9667600310184
20
18.743374791715599
10
107.77280722854371
20
43.328022205836376
10
116.43306126638808
20
48.328022205836376
0
LWPOLYLINE
5
104
100
AcDbEntity
8
0
100
AcDbPolyline
90
4
70
1
43
0.0
10
156.87701406886282
20
-21.722958906967431
10
148.21676003101845
20
-26.722958906967431
10
134.02280722854377
20
-2.1383114928466274
10
142.68306126638811
20
2.8616885071533904
0
LWPOLYLINE
5
105
100
AcDbEntity
8
0
100
AcDbPolyline
90
4
70
1
43
0.0
10
-183.1286782755295
20
67.188175096152037
10
-174.46842423768516
20
72.188175096152008
10
-160.27447143521044
20
47.603527682031213
10
-168.93472547305487
20
42.603527682031235
0
LWPOLYLINE
5
106
100
AcDbEntity
8
0
100
AcDbPolyline
90
4
70
1
43
0.0
10
-156.87867827552955
20
21.721841397468999
10
-148.21842423768513
20
26.721841397468982
10
-134.02447143521047
20
2.1371939833481779
10
-142.68472547305487
20
-2.8628060166517955
0
LWPOLYLINE
5
107
100
AcDbEntity
8
0
100
AcDbPolyline
90
4
70
1
43
0.0
10
-73.821557628914164
20
-122.13731149284683
10
-65.161303591069768
20
-117.13731149284685
10
-50.96735078859507
20
-141.72195890696767
10
-59.627604826439452
20
-146.72195890696767
0
LWPOLYLINE
5
108
100
AcDbEntity
8
0
100
AcDbPolyline
90
4
70
1
43
0.0
10
183.12701406886293
20
-67.189292605650465
10
174.46676003101854
20
-72.189292605650465
10
160.27280722854383
20
-47.604645191529684
10
168.93306126638822
20
-42.604645191529677
0
LWPOLYLINE
5
109
100
AcDbEntity
8
0
100
AcDbPolyline
90
4
70
1
43
0.0
10
-100.07155762891414
20
-76.670977794163804
10
-91.411303591069753
20
-71.670977794163818
10
-77.217350788595084
20
-96.255625208284599
10
-85.877604826439452
20
-101.2556252082846
0
LWPOLYLINE
5
110
100
AcDbEntity
8
0
100
AcDbPolyline
90
4
70
1
43
0.0
10
100.06989342224739
20
76.66986028466539
10
91.409639384403008
20
71.669860284665333
10
77.21568658192831
20
96.254507698786128
10
85.875940619772692
20
101.25450769878617
0
LWPOLYLINE
5
111
100
AcDbEntity
8
0
100
AcDbPolyline
90
4
70
1
43
0.0
10
47.569893422247311
20
167.60252768203139
10
38.909639384402929
20
162.60252768203134
10
24.715686581928232
20
187.18717509615217
10
33.375940619772592
20
192.18717509615215
0
LWPOLYLINE
5
112
100
AcDbEntity
8
0
100
AcDbPolyline
90
4
70
1
43
0.0
10
-130.62867827552955
20
-23.744492301214031
10
-121.96842423768514
20
-18.744492301214059
10
-107.77447143521046
20
-43.329139715334854
10
-116.43472547305487
20
-48.329139715334826
0
LWPOLYLINE
5
113
100
AcDbEntity
8
0
100
AcDbPolyline
90
4
70
1
43
0.0
10
-47.571557628914135
20
-167.60364519152995
10
-38.911303591069746
20
-162.60364519152995
10
-24.71735078859507
20
-187.18829260565073
10
-33.377604826439452
20
-192.18829260565073
0
CIRCLE
5
114
100
AcDbEntity
8
0
100
AcDbCircle
10
-95.117808222261971
20
185.74887654555053
30
0
40
1.850000000000005
210
0
220
0
230
1
0
CIRCLE
5
115
100
AcDbEntity
8
0
100
AcDbCircle
10
-121.96459573957958
20
170.24887654555056
30
0
40
1.850000000000005
210
0
220
0
230
1
0
CIRCLE
5
116
100
AcDbEntity
8
0
100
AcDbCircle
10
0
20
0
30
0
40
5
210
0
220
0
230
1
0
LWPOLYLINE
5
117
100
AcDbEntity
8
0
100
AcDbPolyline
90
4
70
1
43
0.0
10
-24.71735078859507
20
-187.18829260565073
10
-38.911303591069746
20
-162.60364519152995
10
-47.571557628914135
20
-167.60364519152995
10
-33.377604826439452
20
-192.18829260565073
0
LWPOLYLINE
5
118
100
AcDbEntity
8
0
100
AcDbPolyline
90
4
70
1
43
0.0
10
-107.77447143521046
20
-43.329139715334854
10
-121.96842423768514
20
-18.744492301214059
10
-130.62867827552955
20
-23.744492301214031
10
-116.43472547305487
20
-48.329139715334826
0
LWPOLYLINE
5
119
100
AcDbEntity
8
0
100
AcDbPolyline
90
4
70
1
43
0.0
10
24.715686581928232
20
187.18717509615217
10
38.909639384402929
20
162.60252768203134
10
47.569893422247311
20
167.60252768203139
10
33.375940619772592
20
192.18717509615215
0
LWPOLYLINE
5
120
100
AcDbEntity
8
0
100
AcDbPolyline
90
4
70
1
43
0.0
10
77.21568658192831
20
96.254507698786128
10
91.409639384403008
20
71.669860284665333
10
100.06989342224739
20
76.66986028466539
10
85.875940619772692
20
101.25450769878617
0
LWPOLYLINE
5
121
100
AcDbEntity
8
0
100
AcDbPolyline
90
4
70
1
43
0.0
10
-77.217350788595084
20
-96.255625208284599
10
-91.411303591069753
20
-71.670977794163818
10
-100.07155762891414
20
-76.670977794163804
10
-85.877604826439452
20
-101.2556252082846
0
LWPOLYLINE
5
122
100
AcDbEntity
8
0
100
AcDbPolyline
90
4
70
1
43
0.0
10
160.27280722854383
20
-47.604645191529684
10
174.46676003101854
20
-72.189292605650465
10
183.12701406886293
20
-67.189292605650465
10
168.93306126638822
20
-42.604645191529677
0
LWPOLYLINE
5
123
100
AcDbEntity
8
0
100
AcDbPolyline
90
4
70
1
43
0.0
10
-50.96735078859507
20
-141.72195890696767
10
-65.161303591069768
20
-117.13731149284685
10
-73.821557628914164
20
-122.13731149284683
10
-59.627604826439452
20
-146.72195890696767
0
LWPOLYLINE
5
124
100
AcDbEntity
8
0
100
AcDbPolyline
90
4
70
1
43
0.0
10
-134.02447143521047
20
2.1371939833481779
10
-148.21842423768513
20
26.721841397468982
10
-156.87867827552955
20
21.721841397468999
10
-142.68472547305487
20
-2.8628060166517955
0
LWPOLYLINE
5
125
100
AcDbEntity
8
0
100
AcDbPolyline
90
4
70
1
43
0.0
10
-160.27447143521044
20
47.603527682031213
10
-174.46842423768516
20
72.188175096152008
10
-183.1286782755295
20
67.188175096152037
10
-168.93472547305487
20
42.603527682031235
0
LWPOLYLINE
5
126
100
AcDbEntity
8
0
100
AcDbPolyline
90
4
70
1
43
0.0
10
134.02280722854377
20
-2.1383114928466274
10
148.21676003101845
20
-26.722958906967431
10
156.87701406886282
20
-21.722958906967431
10
142.68306126638811
20
2.8616885071533904
0
LWPOLYLINE
5
127
100
AcDbEntity
8
0
100
AcDbPolyline
90
4
70
1
43
0.0
10
107.77280722854371
20
43.328022205836376
10
121.9667600310184
20
18.743374791715599
10
130.62701406886279
20
23.743374791715599
10
116.43306126638808
20
48.328022205836376
0
LWPOLYLINE
5
128
100
AcDbEntity
8
0
100
AcDbPolyline
90
4
70
1
43
0.0
10
50.965686581928281
20
141.72084139746914
10
65.159639384402979
20
117.13619398334835
10
73.819893422247347
20
122.13619398334839
10
59.625940619772649
20
146.72084139746917
0
CIRCLE
5
129
100
AcDbEntity
8
0
100
AcDbCircle
10
0
20
0
30
0
40
217.72665542567606
210
0
220
-0
230
1
0
ENDSEC
0
SECTION
2
OBJECTS
0
DICTIONARY
5
C
100
AcDbDictionary
3
ACAD_GROUP
350
D
3
ACAD_MLINESTYLE
350
17
0
DICTIONARY
5
D
100
AcDbDictionary
0
DICTIONARY
5
1A
330
C
100
AcDbDictionary
0
DICTIONARY
5
17
100
AcDbDictionary
0
ENDSEC
0
EOF
